<?xml version="1.0" encoding="utf-8"?>
<!-- Generator: Adobe Illustrator 15.1.0, SVG Export Plug-In . SVG Version: 6.00 Build 0)  -->
<!DOCTYPE svg PUBLIC "-//W3C//DTD SVG 1.1//EN" "http://www.w3.org/Graphics/SVG/1.1/DTD/svg11.dtd">
<svg version="1.1" id="Calque_1" xmlns="http://www.w3.org/2000/svg" xmlns:xlink="http://www.w3.org/1999/xlink" x="0px" y="0px"
	 width="434px" height="85.814px" viewBox="0 0 434 85.814" enable-background="new 0 0 434 85.814" xml:space="preserve">
<line fill="none" stroke="#DD9946" stroke-width="7.3438" stroke-miterlimit="10" x1="325.135" y1="3.85" x2="325.135" y2="85.814"/>
<g>
	<g>
		<path fill="#FFFFFF" d="M21.551,49.176h11.663v13.549c-1.681,1.204-3.471,2.078-5.369,2.622c-1.899,0.542-3.883,0.815-5.955,0.815
			c-2.703,0-5.16-0.415-7.374-1.244c-2.214-0.832-4.109-1.977-5.685-3.438c-1.577-1.461-2.792-3.195-3.648-5.2
			c-0.855-2.005-1.283-4.183-1.283-6.532c0-2.394,0.405-4.593,1.216-6.598c0.81-2.006,1.97-3.735,3.478-5.189
			c1.508-1.455,3.333-2.585,5.471-3.393c2.14-0.807,4.529-1.211,7.172-1.211c1.365,0,2.648,0.11,3.85,0.33
			c1.2,0.22,2.307,0.521,3.32,0.903c1.014,0.383,1.94,0.837,2.78,1.366c0.84,0.528,1.591,1.101,2.252,1.718l-2.207,3.283
			c-0.346,0.514-0.792,0.83-1.34,0.947c-0.547,0.118-1.137-0.014-1.768-0.396c-0.6-0.353-1.167-0.658-1.7-0.915
			s-1.077-0.466-1.631-0.628c-0.556-0.162-1.142-0.279-1.757-0.353c-0.616-0.073-1.305-0.11-2.07-0.11
			c-1.427,0-2.71,0.246-3.85,0.739c-1.142,0.493-2.113,1.186-2.917,2.081c-0.803,0.896-1.422,1.972-1.857,3.229
			c-0.435,1.255-0.653,2.655-0.653,4.196c0,1.705,0.24,3.217,0.721,4.539c0.479,1.321,1.16,2.438,2.037,3.349
			c0.879,0.911,1.93,1.604,3.152,2.082c1.224,0.478,2.578,0.716,4.063,0.716c0.916,0,1.745-0.088,2.489-0.266
			c0.742-0.176,1.467-0.409,2.173-0.703v-4.869h-3.243c-0.48,0-0.855-0.125-1.126-0.375c-0.27-0.25-0.405-0.564-0.405-0.947V49.176z
			"/>
		<path fill="#FFFFFF" d="M45.979,39.438v7.491h10.312v5.508H45.979v7.646h13.464v5.727H38.325V33.71h21.118v5.728H45.979z
			 M59.601,24.676l-7.272,6.28c-0.181,0.162-0.353,0.286-0.518,0.374c-0.166,0.088-0.338,0.154-0.518,0.199
			c-0.181,0.044-0.372,0.073-0.575,0.088c-0.202,0.014-0.431,0.021-0.686,0.021h-5.088l4.255-5.949
			c0.179-0.234,0.356-0.422,0.528-0.562c0.173-0.139,0.361-0.241,0.563-0.308c0.203-0.066,0.435-0.106,0.698-0.121
			c0.263-0.014,0.566-0.022,0.912-0.022H59.601z"/>
		<path fill="#FFFFFF" d="M95.646,49.748c0,2.321-0.41,4.48-1.228,6.477c-0.818,1.998-1.97,3.734-3.456,5.211
			s-3.276,2.633-5.37,3.47c-2.093,0.838-4.417,1.257-6.968,1.257c-2.552,0-4.879-0.419-6.98-1.257
			c-2.102-0.837-3.899-1.993-5.392-3.47c-1.494-1.477-2.648-3.213-3.467-5.211c-0.818-1.996-1.227-4.155-1.227-6.477
			c0-2.32,0.409-4.48,1.227-6.477c0.819-1.997,1.973-3.73,3.467-5.199c1.493-1.468,3.291-2.622,5.392-3.459
			c2.101-0.836,4.428-1.255,6.98-1.255c2.551,0,4.875,0.422,6.968,1.267c2.094,0.844,3.884,2.001,5.37,3.47
			c1.486,1.468,2.638,3.202,3.456,5.198C95.236,45.291,95.646,47.442,95.646,49.748z M87.856,49.748c0-1.586-0.211-3.014-0.63-4.285
			c-0.42-1.271-1.024-2.347-1.812-3.228c-0.789-0.882-1.753-1.558-2.894-2.027c-1.141-0.47-2.439-0.705-3.895-0.705
			c-1.471,0-2.781,0.235-3.929,0.705c-1.148,0.47-2.117,1.146-2.904,2.027c-0.789,0.881-1.393,1.957-1.813,3.228
			c-0.419,1.271-0.63,2.699-0.63,4.285c0,1.602,0.21,3.037,0.63,4.309c0.421,1.27,1.024,2.346,1.813,3.227
			c0.788,0.881,1.756,1.553,2.904,2.016c1.147,0.463,2.458,0.693,3.929,0.693c1.455,0,2.754-0.23,3.895-0.693
			c1.14-0.463,2.105-1.135,2.894-2.016c0.788-0.881,1.392-1.957,1.812-3.227C87.645,52.785,87.856,51.35,87.856,49.748z"/>
		<path fill="#FFFFFF" d="M119.894,59.86v5.948h-19.768V33.71h7.61v26.15H119.894z"/>
		<path fill="#FFFFFF" d="M143.511,39.613h-9.23v26.195h-7.61V39.613h-9.231V33.71h26.071V39.613z"/>
		<path fill="#FFFFFF" d="M176,33.71v32.099h-7.656v-13.57h-13.328v13.57h-7.655V33.71h7.655v13.417h13.328V33.71H176z"/>
		<path fill="#FFFFFF" d="M190.004,39.438v7.491h10.312v5.508h-10.312v7.646h13.463v5.727H182.35V33.71h21.117v5.728H190.004z
			 M189.891,24.676c0.346,0,0.646,0.012,0.9,0.033c0.256,0.023,0.484,0.066,0.688,0.133c0.203,0.066,0.39,0.165,0.562,0.298
			c0.173,0.131,0.357,0.315,0.552,0.55l4.706,5.949h-5.088c-0.271,0-0.504-0.003-0.699-0.011c-0.194-0.007-0.379-0.034-0.551-0.078
			c-0.174-0.044-0.338-0.106-0.496-0.187c-0.156-0.082-0.326-0.202-0.506-0.365l-7.316-6.323H189.891z"/>
		<path fill="#FFFFFF" d="M241.539,71.824h-6.258c-0.902,0-1.709-0.113-2.421-0.342c-0.714-0.229-1.378-0.65-1.993-1.268
			l-4.076-4.472c-1.274,0.278-2.648,0.419-4.119,0.419c-2.553,0-4.878-0.419-6.979-1.257c-2.101-0.837-3.899-1.993-5.392-3.47
			c-1.494-1.477-2.65-3.213-3.468-5.211c-0.819-1.996-1.226-4.155-1.226-6.477c0-2.32,0.406-4.48,1.226-6.477
			c0.817-1.997,1.974-3.73,3.468-5.199c1.492-1.468,3.291-2.622,5.392-3.459c2.102-0.836,4.427-1.255,6.979-1.255
			c2.552,0,4.874,0.422,6.969,1.267c2.094,0.844,3.883,2.001,5.369,3.47c1.486,1.468,2.637,3.202,3.457,5.198
			c0.816,1.999,1.227,4.15,1.227,6.456c0,1.381-0.146,2.706-0.439,3.977c-0.293,1.271-0.713,2.465-1.262,3.58
			c-0.547,1.116-1.223,2.152-2.025,3.106c-0.803,0.955-1.715,1.8-2.734,2.534L241.539,71.824z M213.396,49.748
			c0,1.602,0.211,3.037,0.63,4.309c0.421,1.27,1.024,2.346,1.813,3.227c0.787,0.881,1.756,1.553,2.902,2.016
			c1.149,0.463,2.459,0.693,3.93,0.693c1.455,0,2.755-0.23,3.895-0.693c1.141-0.463,2.105-1.135,2.893-2.016
			c0.789-0.881,1.393-1.957,1.814-3.227c0.419-1.271,0.629-2.707,0.629-4.309c0-1.586-0.21-3.014-0.629-4.285
			c-0.422-1.271-1.025-2.347-1.814-3.228c-0.787-0.882-1.752-1.558-2.893-2.027c-1.14-0.47-2.439-0.705-3.895-0.705
			c-1.471,0-2.78,0.235-3.93,0.705c-1.146,0.47-2.115,1.146-2.902,2.027c-0.789,0.881-1.393,1.957-1.813,3.228
			C213.607,46.734,213.396,48.162,213.396,49.748z"/>
		<path fill="#FFFFFF" d="M257.861,59.928c1.02,0,1.932-0.166,2.734-0.496c0.805-0.332,1.482-0.805,2.039-1.422
			c0.555-0.617,0.979-1.369,1.271-2.258s0.439-1.898,0.439-3.029V33.71h7.609v19.013c0,1.968-0.326,3.775-0.98,5.42
			c-0.652,1.645-1.588,3.062-2.803,4.252s-2.693,2.115-4.434,2.775c-1.742,0.66-3.701,0.992-5.877,0.992
			c-2.191,0-4.158-0.332-5.899-0.992s-3.22-1.586-4.435-2.775c-1.217-1.189-2.146-2.607-2.792-4.252s-0.968-3.452-0.968-5.42V33.71
			h7.608v18.991c0,1.13,0.147,2.141,0.44,3.028c0.293,0.89,0.715,1.646,1.271,2.27c0.555,0.624,1.234,1.101,2.037,1.433
			C255.928,59.762,256.84,59.928,257.861,59.928z"/>
		<path fill="#FFFFFF" d="M285.555,39.438v7.491h10.311v5.508h-10.311v7.646h13.463v5.727h-21.119V33.71h21.119v5.728H285.555z"/>
	</g>
</g>
<g>
	<path fill="#FFFFFF" d="M361.15,27.483c-0.074,0.138-0.184,0.208-0.324,0.208c-0.107,0-0.248-0.076-0.418-0.227
		c-0.172-0.15-0.404-0.318-0.695-0.502c-0.293-0.184-0.656-0.352-1.094-0.507c-0.439-0.155-0.977-0.234-1.621-0.234
		c-0.643,0-1.207,0.091-1.693,0.271c-0.488,0.179-0.896,0.425-1.227,0.734c-0.33,0.311-0.58,0.669-0.752,1.078
		c-0.17,0.409-0.256,0.836-0.256,1.284c0,0.588,0.127,1.073,0.383,1.458c0.254,0.383,0.588,0.71,1.008,0.978
		c0.414,0.27,0.889,0.497,1.42,0.681c0.527,0.182,1.072,0.363,1.633,0.542c0.557,0.179,1.102,0.378,1.629,0.595
		c0.531,0.215,1.004,0.488,1.42,0.813c0.418,0.328,0.754,0.729,1.008,1.205c0.256,0.479,0.381,1.071,0.381,1.781
		c0,0.727-0.125,1.41-0.381,2.051c-0.254,0.641-0.623,1.198-1.107,1.671c-0.482,0.473-1.076,0.846-1.777,1.119
		c-0.699,0.275-1.5,0.411-2.398,0.411c-1.17,0-2.174-0.203-3.016-0.607c-0.844-0.401-1.58-0.956-2.213-1.656l0.35-0.541
		c0.1-0.122,0.217-0.182,0.35-0.182c0.074,0,0.17,0.048,0.287,0.146c0.117,0.098,0.26,0.217,0.426,0.361
		c0.168,0.144,0.365,0.299,0.6,0.466c0.234,0.167,0.506,0.323,0.814,0.464c0.307,0.143,0.662,0.263,1.062,0.361
		s0.854,0.148,1.363,0.148c0.699,0,1.326-0.105,1.877-0.313c0.549-0.208,1.016-0.49,1.393-0.851c0.381-0.358,0.67-0.784,0.871-1.279
		c0.201-0.493,0.301-1.021,0.301-1.585c0-0.612-0.129-1.114-0.383-1.511c-0.254-0.397-0.59-0.727-1.006-0.992
		c-0.418-0.265-0.889-0.488-1.42-0.667s-1.074-0.354-1.633-0.526c-0.561-0.172-1.102-0.363-1.633-0.576
		c-0.529-0.21-1.002-0.483-1.418-0.813c-0.418-0.33-0.752-0.743-1.008-1.236c-0.254-0.495-0.381-1.111-0.381-1.855
		c0-0.579,0.111-1.138,0.338-1.676c0.225-0.54,0.555-1.014,0.986-1.427c0.436-0.411,0.971-0.741,1.609-0.992
		c0.639-0.249,1.365-0.373,2.182-0.373c0.916,0,1.74,0.143,2.471,0.428c0.729,0.287,1.395,0.724,1.996,1.31L361.15,27.483z"/>
	<path fill="#FFFFFF" d="M372.42,41.802c0.852,0,1.611-0.144,2.283-0.436c0.672-0.289,1.24-0.69,1.707-1.205
		s0.822-1.119,1.068-1.817s0.371-1.451,0.371-2.259v-10.71h1.273v10.71c0,0.956-0.152,1.848-0.461,2.675s-0.754,1.549-1.332,2.166
		c-0.58,0.617-1.285,1.1-2.115,1.451c-0.83,0.352-1.762,0.526-2.795,0.526c-1.035,0-1.965-0.174-2.797-0.526
		c-0.83-0.351-1.531-0.834-2.113-1.451c-0.578-0.617-1.023-1.339-1.332-2.166s-0.463-1.719-0.463-2.675v-10.71h1.289v10.698
		c0,0.808,0.123,1.561,0.369,2.259c0.244,0.698,0.602,1.303,1.062,1.816c0.463,0.514,1.029,0.918,1.701,1.212
		C370.809,41.656,371.568,41.802,372.42,41.802z"/>
	<path fill="#FFFFFF" d="M399.037,34.03c0,1.339-0.203,2.541-0.613,3.61c-0.408,1.071-0.984,1.979-1.725,2.73
		c-0.744,0.75-1.633,1.327-2.672,1.726c-1.037,0.399-2.182,0.6-3.432,0.6h-6.467v-17.32h6.467c1.25,0,2.395,0.201,3.432,0.6
		c1.039,0.399,1.928,0.976,2.672,1.726c0.74,0.75,1.316,1.661,1.725,2.73C398.834,31.501,399.037,32.701,399.037,34.03z
		 M397.713,34.03c0-1.207-0.174-2.285-0.516-3.232s-0.824-1.745-1.449-2.397c-0.625-0.653-1.375-1.15-2.25-1.494
		c-0.877-0.342-1.844-0.514-2.902-0.514h-5.18V41.68h5.18c1.059,0,2.025-0.172,2.902-0.514c0.875-0.342,1.625-0.841,2.25-1.494
		c0.625-0.652,1.107-1.451,1.449-2.397S397.713,35.247,397.713,34.03z"/>
	<path fill="#FFFFFF" d="M368.281,63.405c0,1.339-0.205,2.554-0.613,3.642c-0.408,1.09-0.982,2.02-1.727,2.791
		c-0.74,0.77-1.633,1.365-2.67,1.787c-1.037,0.42-2.182,0.631-3.434,0.631c-1.25,0-2.393-0.211-3.428-0.631
		c-1.031-0.422-1.922-1.018-2.662-1.787c-0.744-0.771-1.32-1.701-1.727-2.791c-0.408-1.088-0.613-2.303-0.613-3.642
		c0-1.329,0.205-2.538,0.613-3.629c0.406-1.09,0.982-2.021,1.727-2.79c0.74-0.771,1.631-1.369,2.662-1.793
		c1.035-0.426,2.178-0.638,3.428-0.638c1.252,0,2.396,0.21,3.434,0.631s1.93,1.019,2.67,1.793c0.744,0.774,1.318,1.707,1.727,2.797
		C368.076,60.867,368.281,62.076,368.281,63.405z M366.955,63.405c0-1.207-0.172-2.292-0.514-3.256s-0.824-1.778-1.451-2.448
		c-0.623-0.669-1.375-1.181-2.25-1.534c-0.877-0.356-1.842-0.533-2.902-0.533c-1.051,0-2.014,0.177-2.889,0.533
		c-0.875,0.354-1.629,0.865-2.258,1.534c-0.631,0.67-1.119,1.484-1.465,2.448c-0.344,0.964-0.52,2.049-0.52,3.256
		c0,1.217,0.176,2.302,0.52,3.263c0.346,0.959,0.834,1.771,1.465,2.441c0.629,0.67,1.383,1.178,2.258,1.529s1.838,0.527,2.889,0.527
		c1.061,0,2.025-0.176,2.902-0.527c0.875-0.352,1.627-0.859,2.25-1.529c0.627-0.67,1.109-1.482,1.451-2.441
		C366.783,65.707,366.955,64.622,366.955,63.405z"/>
	<path fill="#FFFFFF" d="M378.838,71.178c0.852,0,1.611-0.145,2.283-0.436c0.672-0.289,1.242-0.691,1.707-1.205
		c0.467-0.514,0.822-1.119,1.068-1.816c0.246-0.698,0.371-1.451,0.371-2.26V54.752h1.273v10.709c0,0.957-0.152,1.848-0.461,2.676
		c-0.309,0.826-0.752,1.549-1.332,2.166c-0.58,0.615-1.285,1.1-2.115,1.451c-0.828,0.352-1.762,0.525-2.795,0.525
		c-1.035,0-1.965-0.174-2.797-0.525c-0.828-0.352-1.531-0.836-2.113-1.451c-0.578-0.617-1.021-1.34-1.33-2.166
		c-0.309-0.828-0.465-1.719-0.465-2.676V54.752h1.289v10.697c0,0.809,0.125,1.561,0.371,2.26c0.244,0.697,0.6,1.303,1.061,1.816
		c0.465,0.514,1.031,0.918,1.703,1.211C377.229,71.031,377.988,71.178,378.838,71.178z"/>
	<path fill="#FFFFFF" d="M401.178,71.031l-0.023,1.039h-10.607V54.752h10.607v1.039h-9.32v7.002h7.754v1.017h-7.754v7.222H401.178z"
		/>
	<path fill="#FFFFFF" d="M413.648,56.857c-0.074,0.139-0.186,0.209-0.326,0.209c-0.107,0-0.248-0.077-0.418-0.229
		c-0.172-0.15-0.404-0.317-0.695-0.502c-0.293-0.184-0.656-0.352-1.094-0.506c-0.439-0.156-0.977-0.234-1.619-0.234
		c-0.645,0-1.209,0.09-1.695,0.27c-0.488,0.18-0.896,0.426-1.227,0.734c-0.33,0.311-0.578,0.67-0.75,1.078
		c-0.17,0.408-0.256,0.836-0.256,1.283c0,0.588,0.125,1.074,0.381,1.459c0.254,0.383,0.588,0.709,1.008,0.978
		c0.416,0.271,0.889,0.497,1.42,0.681c0.527,0.182,1.072,0.363,1.633,0.543c0.557,0.18,1.102,0.378,1.629,0.596
		c0.531,0.215,1.004,0.487,1.42,0.812c0.42,0.328,0.754,0.729,1.008,1.205c0.256,0.479,0.383,1.07,0.383,1.781
		c0,0.727-0.127,1.41-0.383,2.051c-0.254,0.641-0.621,1.197-1.107,1.67c-0.482,0.475-1.076,0.848-1.775,1.119
		c-0.701,0.275-1.502,0.412-2.4,0.412c-1.17,0-2.174-0.203-3.016-0.607c-0.844-0.402-1.58-0.957-2.213-1.656l0.35-0.541
		c0.1-0.121,0.217-0.182,0.352-0.182c0.074,0,0.17,0.049,0.285,0.146c0.117,0.098,0.26,0.217,0.426,0.361
		c0.168,0.143,0.367,0.299,0.602,0.465c0.234,0.168,0.504,0.322,0.812,0.465s0.662,0.262,1.062,0.359
		c0.4,0.1,0.854,0.148,1.363,0.148c0.701,0,1.326-0.104,1.877-0.312c0.549-0.207,1.016-0.49,1.393-0.852
		c0.381-0.357,0.67-0.783,0.871-1.279c0.201-0.492,0.301-1.02,0.301-1.584c0-0.611-0.129-1.114-0.383-1.511
		c-0.252-0.397-0.59-0.728-1.006-0.992c-0.418-0.265-0.889-0.487-1.42-0.667s-1.074-0.354-1.633-0.525
		c-0.559-0.173-1.102-0.363-1.633-0.576c-0.527-0.211-1.002-0.483-1.418-0.812c-0.418-0.33-0.752-0.744-1.008-1.236
		c-0.254-0.495-0.381-1.111-0.381-1.855c0-0.578,0.113-1.138,0.338-1.676c0.225-0.54,0.555-1.014,0.986-1.428
		c0.436-0.41,0.971-0.74,1.609-0.992c0.639-0.248,1.365-0.372,2.182-0.372c0.916,0,1.74,0.144,2.471,0.428
		c0.729,0.287,1.396,0.725,1.996,1.31L413.648,56.857z"/>
	<path fill="#FFFFFF" d="M429.943,55.818h-6.215V72.07h-1.289V55.818h-6.254v-1.066h13.758V55.818z"/>
</g>
</svg>
