<svg>
    <def>
        <g id="panorama">
            <g>
                <g>
                    <polygon  fill="#DD9946" points="160.04,74.972 164.775,81.268 130.216,102.315 95.656,123.361 125.48,96.017 155.305,68.671 			
				" />
                    <polygon  fill="#DD9946" points="174.74,119.494 176.198,127.237 135.896,130.826 95.591,134.412 134.436,123.084 173.28,111.752 
							" />
                    <polygon fill="#DD9946"  points="175.583,161.864 173.917,169.564 135.389,157.204 96.86,144.84 137.055,149.503 177.247,154.158 
							" />
                    <polygon  fill="#DD9946"   points="160.821,199.312 156.152,205.658 126.042,178.625 95.932,151.592 130.709,172.275 
				165.488,192.958 			" />
                    <path fill="#6D6E71" d="M74.094,124.729c7.071,0,12.801,5.496,12.801,12.277c0,6.776-5.729,12.271-12.801,12.271
				s-12.804-5.495-12.804-12.271C61.291,130.226,67.023,124.729,74.094,124.729z" />
                </g>
            </g>
            <g>
                <path stroke="#DD9946" fill="none"  stroke-width="12.6651" stroke-miterlimit="10" d="M13.169,128.675
			c0-60.851,49.328-110.181,110.181-110.181c60.854,0,110.182,49.33,110.182,110.181" />
            </g>
        </g>
        <g id="affleurement">
            <g>
                <g>
                    <path fill="#DD9946"  d="M209.357,194.317l-43.051-45.322l-19.89,23.718l-3.618-4.04l-61.292-68.497L21.579,165.14
				c14.265,37.82,48.919,65.637,90.573,70.03l20.016,0.289C163.432,233.069,191.004,217.51,209.357,194.317z" />
                    <path fill="#6D6E71" d="M81.296,100.402l-59.718,64.734c8.912,23.636,25.784,43.36,47.35,55.902l-11.501-52.366l47.111,23.929
				L81.296,100.402z" />
                    <polygon fill="#6D6E71" points="162.883,153.079 146.417,172.712 188.291,213.542 			" />
                </g>
                <g>
                    <path stroke="#DD9946" fill="none" stroke-width="12.6651" stroke-miterlimit="10" d="M13.797,127.035
				c0-60.526,49.064-109.594,109.593-109.594c60.529,0,109.593,49.066,109.593,109.594" />
                </g>
            </g>
        </g>
        <g id="echantillonage">
            <g>
          <path fill="#6D6E71" d="M185.588,138.182c-0.547-0.345-1.146-0.806-1.801-1.41c-0.236-0.218-25.032-24.604-37.508-24.604
		c-2.105,0-3.657,0.705-4.743,2.157l-31.109,41.776l-13.544-10.12l27.493-37.828c0.025-0.029,2.779-3.072,2.245-7.211
		c-0.459-3.546-3.132-6.905-7.944-9.984l-13.066-8.279l0.027-0.551c0.013-0.248,2.805-8.911,10.96-14.171l0.495-0.319l0.505,0.304
		c2.619,1.576,67.548,40.99,75.127,67.153C192.725,141.007,185.588,138.182,185.588,138.182z"/>
	<path  fill="#DD9946"  d="M76.632,211.768c-1.502,0-2.601-0.829-2.721-0.924L58.46,198.917c-0.449-0.321-1.427-1.285-0.789-3.273
		c0.221-0.688,1.918-3.77,3.351-5.076l-0.036-0.026l31.557-41.656c4.562-7.003,9.469-10.567,9.675-10.716l0.803-0.575l13.576,10.134
		l-0.204,0.939c-0.642,2.945-4.131,9.407-4.527,10.134L81.483,207.54C80.078,211.029,78.074,211.768,76.632,211.768z"/>
                <g>
                    <path fill="none" stroke="transparent" stroke-width="12.6651" stroke-miterlimit="10" d="M232.179,127.035
				c0,60.526-49.062,109.595-109.593,109.595c-60.526,0-109.595-49.067-109.595-109.595c0-60.526,49.067-109.594,109.595-109.594
				C183.116,17.442,232.179,66.509,232.179,127.035z" />
                </g>
                <path stroke="#DD9946" fill="none"  stroke-width="12.6651" stroke-miterlimit="10" d="M12.991,127.035
			c0-60.526,49.067-109.594,109.595-109.594c60.53,0,109.593,49.066,109.593,109.594" />
            </g>
        </g>
        <g id="musee">
            <path fill="#DD9946"  d="M251.103,161.842" />
            <rect x="137.403" y="122.903" fill="none" width="14" height="43" />
            <rect x="89.403" y="122.903" fill="none" width="12" height="43" />
            <g>
                <polygon fill="#6D6E71" points="69.299,119.903 180.836,119.903 125.069,87.552 		" />
                <polygon fill="#DD9946"  points="89.403,173.903 89.403,128.903 75.403,128.903 75.403,176.837 77.062,173.903 		" />
                <rect x="99.403" y="128.903" fill="#DD9946"  width="15" height="45" />
                <rect x="127.403" y="128.903" fill="#DD9946"  width="17" height="45" />
                <polygon fill="#DD9946"  points="153.403,173.903 173.074,173.903 172.403,176.837 172.403,128.903 153.403,128.903 		" />
                <polygon fill="#6D6E71" points="173.761,178.063 173.074,173.903 158.775,173.903 146.04,173.903 131.063,173.903 
			125.069,173.903 119.076,173.903 104.096,173.903 92.107,173.903 77.062,173.903 76.375,178.063 66.241,197.903 125.069,197.903 
			183.895,197.903 		" />
            </g>
            <g>
                <g>
                    <path  fill="none" stroke="transparent" stroke-width="12.6651" stroke-miterlimit="10" d="M231.762,127.035
				c0,60.526-49.065,109.595-109.592,109.595c-60.53,0-109.596-49.067-109.596-109.595c0-60.526,49.064-109.594,109.596-109.594
				C182.696,17.442,231.762,66.509,231.762,127.035z" />
                </g>
                <path stroke="#DD9946" fill="none"  stroke-width="12.6651" stroke-miterlimit="10" d="M12.574,127.035
			c0-60.526,49.064-109.594,109.596-109.594c60.525,0,109.592,49.066,109.592,109.594" />
            </g>
        </g>
        <g id="test">
            <g>
                <g id="musee_1_">
                    <path fill="#DD9946"  d="M251.103,161.842" />
                    <rect x="137.403" y="122.903" fill="none" width="14" height="43" />
                    <rect x="89.403" y="122.903" fill="none" width="12" height="43" />
                    <g>
                        <rect x="99.403" y="128.903"  width="15" height="45" />
                    </g>
                    <g>
                        <g>
                            <path fill="none" stroke="transparent" stroke-width="12.6651" stroke-miterlimit="10" d="M231.762,127.035
						c0,60.526-49.065,109.595-109.592,109.595c-60.53,0-109.596-49.067-109.596-109.595c0-60.526,49.064-109.594,109.596-109.594
						C182.696,17.442,231.762,66.509,231.762,127.035z" />
                        </g>
                        <path stroke="#DD9946" fill="none"  stroke-width="12.6651" stroke-miterlimit="10" d="M12.574,127.035
					c0-60.526,49.064-109.594,109.596-109.594c60.525,0,109.592,49.066,109.592,109.594" />
                    </g>
                </g>
                <path fill="#6D6E71" d="M190.858,139.602c-2.858,2.282-6.804,2.091-8.823-0.43L137.06,82.888
			c-2.016-2.521-1.336-6.416,1.522-8.698l0,0c2.858-2.284,6.808-2.086,8.821,0.432l44.979,56.285
			C194.394,133.427,193.711,137.32,190.858,139.602L190.858,139.602z" />
                <path fill="#6D6E71" d="M177.931,130.409l-77.843,62.208c0,0-18.477,13.655-35.374-5.122l-2.983-4.156
			c-13.987-21.036,3.814-35.567,3.814-35.567l77.058-61.575" />
                <path fill="#DD9946"  d="M117.102,118.681l51.317,6.694l-74.457,59.698c0,0-14.909,10.096-24.529-3.645
			c0,0-12.96-9.038,0.634-25.683L117.102,118.681z" />
                <g>
                    <g>
                        <path fill="#6D6E71" d="M159.769,111.535c-0.933,0-1.858-0.411-2.484-1.198l-9.011-11.32c-1.091-1.371-0.864-3.367,0.507-4.458
					c1.373-1.091,3.369-0.861,4.459,0.507l9.01,11.32c1.092,1.371,0.864,3.367-0.507,4.458
					C161.158,111.31,160.462,111.535,159.769,111.535z" />
                    </g>
                    <g>
                        <path fill="#6D6E71" d="M139.974,114.491c-0.97,0-1.928-0.445-2.551-1.283l-3.15-4.25c-1.044-1.408-0.749-3.396,0.659-4.439
					c1.41-1.045,3.392-0.749,4.439,0.659l3.15,4.25c1.043,1.408,0.749,3.396-0.659,4.439
					C141.292,114.289,140.631,114.491,139.974,114.491z" />
                    </g>
                    <g>
                        <path fill="#6D6E71" d="M133.327,131.125c-0.935,0-1.859-0.411-2.485-1.197l-9.006-11.32c-1.092-1.371-0.864-3.367,0.507-4.458
					c1.373-1.095,3.367-0.864,4.458,0.507l9.007,11.321c1.091,1.37,0.863,3.367-0.507,4.458
					C134.717,130.9,134.02,131.125,133.327,131.125z" />
                    </g>
                    <g>
                        <path fill="#6D6E71" d="M112.998,133.161c-0.97,0-1.928-0.444-2.552-1.283l-2.521-3.398c-1.043-1.408-0.749-3.395,0.66-4.439
					c1.404-1.043,3.392-0.747,4.439,0.659l2.521,3.398c1.043,1.408,0.749,3.395-0.66,4.44
					C114.319,132.959,113.656,133.161,112.998,133.161z" />
                    </g>
                    <g>
                        <path fill="#6D6E71" d="M106.983,150.647c-0.935,0-1.859-0.411-2.485-1.197l-9.009-11.32c-1.091-1.371-0.863-3.367,0.507-4.458
					c1.373-1.096,3.367-0.864,4.458,0.507l9.009,11.32c1.091,1.37,0.863,3.367-0.507,4.458
					C108.373,150.422,107.676,150.647,106.983,150.647z" />
                    </g>
                    <g>
                        <path fill="#6D6E71" d="M86.654,152.683c-0.97,0-1.928-0.444-2.551-1.282l-2.521-3.399c-1.043-1.408-0.749-3.395,0.659-4.439
					c1.404-1.043,3.395-0.747,4.44,0.659l2.52,3.398c1.043,1.409,0.749,3.395-0.659,4.44
					C87.975,152.481,87.311,152.683,86.654,152.683z" />
                    </g>
                    <g>
                        <path fill="#6D6E71" d="M79.788,170.799c-0.935,0-1.859-0.411-2.485-1.198l-9.009-11.32c-1.091-1.37-0.864-3.367,0.507-4.458
					c1.371-1.094,3.368-0.864,4.458,0.507l9.009,11.32c1.091,1.371,0.864,3.367-0.507,4.459
					C81.177,170.573,80.481,170.799,79.788,170.799z" />
                    </g>
                </g>
            </g>
        </g>
    </def>
</svg>
